<svg width="25" height="25" viewBox="0 0 25 25" fill="none" xmlns="http://www.w3.org/2000/svg">
<circle cx="12.5" cy="13.125" r="10" fill="#659500"/>
<circle cx="12.5" cy="11.25" r="10" fill="#ADFF00"/>
<g clip-path="url(#clip0_2083_19739)">
<path fill-rule="evenodd" clip-rule="evenodd" d="M13.75 15.625V14.375H15.625V15.625C15.625 17.3509 14.2259 18.75 12.5 18.75C10.7741 18.75 9.375 17.3509 9.375 15.625V14.375H8.125C6.39911 14.375 5 12.9759 5 11.25C5 9.52411 6.39911 8.125 8.125 8.125H9.375V6.875C9.375 5.14911 10.7741 3.75 12.5 3.75C14.2259 3.75 15.625 5.14911 15.625 6.875V8.125H16.875C18.6009 8.125 20 9.52411 20 11.25C20 12.9759 18.6009 14.375 16.875 14.375L15.625 14.375V12.5L16.875 12.5C17.5654 12.5 18.125 11.9404 18.125 11.25C18.125 10.5596 17.5654 10 16.875 10L11.25 10V15.625C11.25 16.3154 11.8096 16.875 12.5 16.875C13.1904 16.875 13.75 16.3154 13.75 15.625ZM9.375 12.5V10H8.125C7.43464 10 6.875 10.5596 6.875 11.25C6.875 11.9404 7.43464 12.5 8.125 12.5H9.375ZM11.25 8.125H13.75V6.875C13.75 6.18464 13.1904 5.625 12.5 5.625C11.8096 5.625 11.25 6.18464 11.25 6.875V8.125Z" fill="black"/>
</g>
<defs>
<clipPath id="clip0_2083_19739">
<rect width="15" height="15" fill="white" transform="translate(5 3.75)"/>
</clipPath>
</defs>
</svg>
