<svg width="43" height="43" viewBox="0 0 43 43" fill="none" xmlns="http://www.w3.org/2000/svg">
<rect x="0.351562" y="0.108093" width="42.5676" height="42.5676" rx="9.93243" fill="#202020"/>
<rect x="3.01172" y="2.76855" width="37.2466" height="37.2466" rx="18.6233" fill="white"/>
<path d="M20.4486 9.03741V6.01803H20.4363L19.504 6.66098V6.13673L20.4437 5.46906H20.9902V9.03741H20.4486ZM21.8606 9.03741V8.65659L23.1169 7.39295C23.5917 6.91816 23.698 6.73022 23.698 6.45326V6.44831C23.6955 6.10953 23.4383 5.86719 23.0773 5.86719C22.6594 5.86719 22.3602 6.1491 22.3552 6.51014V6.52497H21.831V6.51014C21.831 5.87213 22.3725 5.40971 23.0699 5.40971C23.7549 5.40971 24.2445 5.83999 24.2445 6.41617V6.42111C24.2445 6.82914 24.0541 7.11846 23.4136 7.75152L22.6025 8.54779V8.57004H24.3014V9.03741H21.8606Z" fill="#262626"/>
<path d="M21.8147 38.4029C21.0852 38.4029 20.4126 37.896 20.4126 36.6126V36.6076C20.4126 35.4182 20.9442 34.7159 21.837 34.7159C22.4725 34.7159 22.9497 35.0794 23.0635 35.611L23.0709 35.6407H22.5145L22.5071 35.616C22.4057 35.3489 22.1733 35.1808 21.832 35.1808C21.2187 35.1808 20.969 35.7718 20.9467 36.479C20.9442 36.5112 20.9442 36.5433 20.9442 36.5755H20.9566C21.0976 36.254 21.4586 36.0018 21.9433 36.0018C22.6258 36.0018 23.1179 36.4988 23.1179 37.1739V37.1788C23.1179 37.891 22.5665 38.4029 21.8147 38.4029ZM21.0531 37.1813C21.0531 37.6042 21.3844 37.938 21.8073 37.938C22.2301 37.938 22.5665 37.6091 22.5665 37.1937V37.1887C22.5665 36.7585 22.2499 36.4518 21.8147 36.4518C21.3819 36.4518 21.0531 36.756 21.0531 37.1788V37.1813Z" fill="#262626"/>
<path d="M29.1774 11.0005V7.98117H29.1651L28.2328 8.62412V8.09987L29.1725 7.43219H29.719V11.0005H29.1774Z" fill="#262626"/>
<path d="M13.4995 36.4214L15.0847 33.3328V33.3204H13.2028V32.853H15.6312V33.3328L14.0807 36.4214H13.4995Z" fill="#262626"/>
<path d="M33.3636 16.364V15.9831L34.6198 14.7195C35.0946 14.2447 35.2009 14.0568 35.2009 13.7798V13.7749C35.1985 13.4361 34.9413 13.1937 34.5802 13.1937C34.1623 13.1937 33.8631 13.4756 33.8582 13.8367V13.8515H33.3339V13.8367C33.3339 13.1987 33.8755 12.7362 34.5728 12.7362C35.2578 12.7362 35.7474 13.1665 35.7474 13.7427V13.7477C35.7474 14.1557 35.557 14.445 34.9166 15.0781L34.1055 15.8743V15.8966H35.8043V16.364H33.3636Z" fill="#262626"/>
<path d="M9.05852 31.1472C8.26968 31.1472 7.71081 30.7244 7.71081 30.121V30.1161C7.71081 29.666 8.03475 29.3099 8.49965 29.2085V29.1961C8.10152 29.0824 7.84187 28.7856 7.84187 28.4073V28.4023C7.84187 27.8583 8.34881 27.4602 9.05852 27.4602C9.76824 27.4602 10.2777 27.8583 10.2777 28.4023V28.4073C10.2777 28.7856 10.018 29.0824 9.61987 29.1961V29.2085C10.0848 29.3099 10.4062 29.666 10.4062 30.1161V30.121C10.4062 30.7244 9.84984 31.1472 9.05852 31.1472ZM9.05852 29.0107C9.45666 29.0107 9.72867 28.7807 9.72867 28.4568V28.4518C9.72867 28.1254 9.45418 27.8979 9.05852 27.8979C8.66286 27.8979 8.39085 28.1254 8.39085 28.4518V28.4568C8.39085 28.7807 8.66286 29.0107 9.05852 29.0107ZM9.05852 30.7046C9.51353 30.7046 9.83748 30.4449 9.83748 30.0839V30.079C9.83748 29.7154 9.516 29.4533 9.05852 29.4533C8.60104 29.4533 8.27957 29.7154 8.27957 30.079V30.0839C8.27957 30.4449 8.60351 30.7046 9.05852 30.7046Z" fill="#262626"/>
<path d="M36.506 23.7498C35.7444 23.7498 35.2474 23.3344 35.1979 22.7533L35.1954 22.7211H35.7271L35.7296 22.7483C35.7642 23.0649 36.0634 23.2874 36.506 23.2874C36.9413 23.2874 37.2355 23.0451 37.2355 22.6989V22.6939C37.2355 22.2908 36.9437 22.0658 36.4665 22.0658H36.0337V21.6355H36.4516C36.8597 21.6355 37.1366 21.3957 37.1366 21.0643V21.0594C37.1366 20.7156 36.9042 20.5153 36.5011 20.5153C36.1054 20.5153 35.8285 20.723 35.7939 21.0544L35.7914 21.0767H35.2721L35.2746 21.0519C35.329 20.456 35.8037 20.0628 36.5011 20.0628C37.2108 20.0628 37.6757 20.4387 37.6757 20.9876V20.9926C37.6757 21.4352 37.3592 21.732 36.924 21.8235V21.8358C37.4482 21.8828 37.7994 22.1993 37.7994 22.6989V22.7038C37.7994 23.3146 37.2627 23.7498 36.506 23.7498Z" fill="#262626"/>
<path d="M7.02989 20.1446C7.75939 20.1446 8.43201 20.6516 8.43201 21.935V21.9399C8.43201 23.1294 7.90034 23.8317 7.00763 23.8317C6.3721 23.8317 5.89484 23.4682 5.78109 22.9365L5.77367 22.9068H6.32759L6.33748 22.9316C6.43887 23.1986 6.67132 23.3668 7.01258 23.3668C7.62585 23.3668 7.87561 22.7758 7.89787 22.0685C7.90034 22.0364 7.90034 22.0042 7.90034 21.9721H7.88798C7.74702 22.2936 7.38598 22.5458 6.9013 22.5458C6.21878 22.5458 5.72421 22.0487 5.72421 21.3736V21.3687C5.72421 20.6565 6.27566 20.1446 7.02989 20.1446ZM7.02741 22.0957C7.46264 22.0957 7.79153 21.7916 7.79153 21.3687V21.3662C7.79153 20.9434 7.46017 20.6095 7.03483 20.6095C6.61444 20.6095 6.27566 20.9384 6.27566 21.3539V21.3588C6.27566 21.7891 6.59466 22.0957 7.02741 22.0957Z" fill="#262626"/>
<path d="M34.7595 31.0879V30.3782H32.974V29.896L34.4899 27.5195H35.2911V29.9133H35.7832V30.3782H35.2911V31.0879H34.7595ZM33.4884 29.9207H34.7644V27.9572H34.7496L33.4884 29.9059V29.9207Z" fill="#262626"/>
<path d="M7.73488 16.364V13.3446H7.72252L6.79024 13.9875V13.4633L7.72993 12.7956H8.27644V16.364H7.73488ZM10.4501 16.4233C9.59696 16.4233 9.08754 15.7136 9.08754 14.581V14.5761C9.08754 13.4435 9.59696 12.7362 10.4501 12.7362C11.3008 12.7362 11.8127 13.4435 11.8127 14.5761V14.581C11.8127 15.7136 11.3008 16.4233 10.4501 16.4233ZM10.4501 15.9609C10.957 15.9609 11.2538 15.4366 11.2538 14.581V14.5761C11.2538 13.7204 10.957 13.2011 10.4501 13.2011C9.94069 13.2011 9.64641 13.7204 9.64641 14.5761V14.581C9.64641 15.4366 9.94069 15.9609 10.4501 15.9609Z" fill="#262626"/>
<path d="M29.2244 36.4397C28.5097 36.4397 28.0127 36.007 27.9632 35.4184L27.9607 35.3887L28.4899 35.3887L28.4924 35.4085C28.5394 35.73 28.8312 35.9773 29.2293 35.9773C29.6794 35.9773 29.9934 35.6657 29.9934 35.2231L29.9934 35.2181C29.991 34.7804 29.6769 34.4713 29.2343 34.4713C29.0142 34.4713 28.8238 34.5356 28.6804 34.6642C28.6136 34.7211 28.5567 34.7903 28.5097 34.8694L28.025 34.8694L28.2006 32.812L30.3273 32.812L30.3273 33.2794L28.6482 33.2794L28.5394 34.4095L28.5518 34.4095C28.7125 34.1696 29.0092 34.0336 29.3604 34.0336C30.0429 34.0336 30.535 34.5257 30.535 35.2082L30.535 35.2132C30.535 35.9377 29.9934 36.4397 29.2244 36.4397Z" fill="#262626"/>
<path d="M13.2436 11.0414V8.02206H13.2313L12.299 8.66501V8.14076L13.2387 7.47308H13.7852V11.0414H13.2436ZM15.5583 11.0414V8.02206H15.5459L14.6136 8.66501V8.14076L15.5533 7.47308H16.0998V11.0414H15.5583Z" fill="#262626"/>
<path d="M5.41983 27.8009C5.53516 28.0937 5.86598 28.2375 6.15875 28.1222L19.3674 22.9192C19.5476 22.8482 19.6713 22.6955 19.713 22.5205L20.786 22.0978C21.082 22.4573 21.5864 22.6029 22.0431 22.423C22.6104 22.1995 22.8891 21.5585 22.6657 20.9912C22.4422 20.4239 21.8012 20.1451 21.2338 20.3686C20.7771 20.5485 20.5075 20.999 20.5363 21.4637L19.442 21.8948C19.2971 21.8118 19.1172 21.793 18.9498 21.859L5.74112 27.062C5.44835 27.1773 5.30451 27.5081 5.41983 27.8009Z" fill="#262626" stroke="#262626" stroke-width="0.0709459"/>
<path d="M22.0491 20.3765C21.593 20.1951 21.0881 20.3391 20.791 20.6976L19.6981 20.263C19.6492 20.1035 19.5309 19.9666 19.3637 19.9001L12.6969 17.2491C12.4045 17.1329 12.0732 17.2757 11.9569 17.5681C11.8407 17.8605 11.9834 18.1917 12.2758 18.308L18.9427 20.959C19.1226 21.0305 19.3173 21.0039 19.4675 20.9048L20.5392 21.3309C20.5089 21.7956 20.7771 22.2469 21.2332 22.4283C21.7998 22.6536 22.4418 22.3769 22.667 21.8103C22.8923 21.2438 22.6157 20.6018 22.0491 20.3765Z" fill="#262626" stroke="#262626" stroke-width="0.0709459"/>
<path fill-rule="evenodd" clip-rule="evenodd" d="M21.3297 18.6442H21.9403V20.863C22.1228 20.9686 22.2456 21.1659 22.2456 21.3919C22.2456 21.6179 22.1228 21.8153 21.9403 21.9208V39.4046H21.3297V21.9208C21.1472 21.8153 21.0244 21.6179 21.0244 21.3919C21.0244 21.1659 21.1472 20.9686 21.3297 20.863V18.6442ZM21.9403 21.3919C21.9403 21.5605 21.8036 21.6972 21.635 21.6972C21.4664 21.6972 21.3297 21.5605 21.3297 21.3919C21.3297 21.2233 21.4664 21.0866 21.635 21.0866C21.8036 21.0866 21.9403 21.2233 21.9403 21.3919Z" fill="#EF8732"/>
<path d="M21.9403 21.3919C21.9403 21.5605 21.8036 21.6972 21.635 21.6972C21.4664 21.6972 21.3297 21.5605 21.3297 21.3919C21.3297 21.2233 21.4664 21.0866 21.635 21.0866C21.8036 21.0866 21.9403 21.2233 21.9403 21.3919Z" fill="white"/>
</svg>
