<svg width="43" height="43" viewBox="0 0 43 43" fill="none" xmlns="http://www.w3.org/2000/svg">
<rect width="42.5676" height="42.5676" rx="9.93243" fill="url(#paint0_linear_51_4325)"/>
<rect width="42.5675" height="42.5675" rx="9.22297" fill="url(#paint1_linear_51_4325)"/>
<path d="M8.09109 14.882C6.33466 10.1578 9.36274 8.06259 11.5503 7.45373C11.9214 7.35046 12.3053 7.51766 12.5255 7.83361L16.5069 13.546C16.7655 13.9171 16.7374 14.4126 16.4704 14.7777C15.5599 16.023 15.2312 17.0797 15.1133 17.9023C15.0157 18.5831 15.2585 19.2594 15.6673 19.8125C18.7974 24.0482 22.1836 27.2335 23.8461 27.3114C25.0644 27.3686 26.5519 26.4243 27.3632 25.8282C27.7255 25.5619 28.2209 25.5306 28.595 25.78L34.4216 29.6644C34.7415 29.8776 34.9154 30.2597 34.8337 30.6355C33.7703 35.5257 29.1727 35.0061 26.9222 34.0873C16.3635 29.1821 10.5021 21.3669 8.09109 14.882Z" fill="#FEFEFE"/>
<defs>
<linearGradient id="paint0_linear_51_4325" x1="21.2838" y1="0" x2="21.2838" y2="42.5676" gradientUnits="userSpaceOnUse">
<stop stop-color="#5CF777"/>
<stop offset="1" stop-color="#0EBC29"/>
</linearGradient>
<linearGradient id="paint1_linear_51_4325" x1="21.2838" y1="0" x2="21.2838" y2="42.5675" gradientUnits="userSpaceOnUse">
<stop stop-color="#5CF777"/>
<stop offset="1" stop-color="#0EBC29"/>
</linearGradient>
</defs>
</svg>
