<svg width="44" height="43" viewBox="0 0 44 43" fill="none" xmlns="http://www.w3.org/2000/svg">
<g clip-path="url(#clip0_83_1252)">
<rect x="21.9023" y="32.5806" width="21.2341" height="10.1641" fill="#FFCC00"/>
<rect x="0.5" y="0.108093" width="42.6366" height="32.145" fill="url(#paint0_linear_83_1252)"/>
<rect x="0.5" y="15.9709" width="11.2353" height="26.7738" fill="#F082CA"/>
<g clip-path="url(#clip1_83_1252)">
<circle cx="43.6743" cy="-0.511591" r="13.3456" stroke="white" stroke-width="7.10662"/>
<path fill-rule="evenodd" clip-rule="evenodd" d="M43.6741 10.1338C49.5534 10.1338 54.3195 5.36767 54.3195 -0.511646C54.3195 -6.39096 49.5534 -11.1571 43.6741 -11.1571C37.7948 -11.1571 33.0286 -6.39096 33.0286 -0.511646C33.0286 5.36767 37.7948 10.1338 43.6741 10.1338ZM43.6741 15.5609C52.5507 15.5609 59.7466 8.36496 59.7466 -0.511646C59.7466 -9.38825 52.5507 -16.5842 43.6741 -16.5842C34.7975 -16.5842 27.6016 -9.38825 27.6016 -0.511646C27.6016 8.36496 34.7975 15.5609 43.6741 15.5609Z" fill="#D2D1D6"/>
</g>
<path d="M23.0975 -0.473816H10.0446V9.31957C10.0446 9.83902 9.47301 10.1555 9.03272 9.87992L0.68834 4.65656L-5.07031 13.2243L40.3948 43.3755L46.1535 34.5583L23.0975 19.0977V-0.473816Z" fill="#F2F1F6"/>
<path d="M12.0693 -1.13135H16.5316H20.9939V21.2628H12.0693V-1.13135Z" fill="url(#paint1_linear_83_1252)"/>
<path d="M10.251 21.5901H16.5726H22.8941V42.7447H10.251V21.5901Z" fill="#EEF0F6"/>
<g filter="url(#filter0_d_83_1252)">
<circle cx="16.449" cy="26.6308" r="9.83357" fill="url(#paint2_linear_83_1252)" stroke="white" stroke-width="1.6527"/>
<path d="M17.6224 20.6144C17.2798 19.7138 15.9455 19.7138 15.6029 20.6144L11.8151 30.9604C11.574 31.6192 12.3898 32.1505 12.8948 31.6635L16.3832 28.2998C16.5112 28.1763 16.714 28.1763 16.842 28.2998L20.3304 31.6635C20.8354 32.1505 21.6512 31.6191 21.41 30.9604L17.6224 20.6144Z" fill="white"/>
</g>
</g>
<defs>
<filter id="filter0_d_83_1252" x="0.830958" y="12.2523" width="31.2365" height="31.236" filterUnits="userSpaceOnUse" color-interpolation-filters="sRGB">
<feFlood flood-opacity="0" result="BackgroundImageFix"/>
<feColorMatrix in="SourceAlpha" type="matrix" values="0 0 0 0 0 0 0 0 0 0 0 0 0 0 0 0 0 0 127 0" result="hardAlpha"/>
<feOffset dy="1.23953"/>
<feGaussianBlur stdDeviation="2.47905"/>
<feComposite in2="hardAlpha" operator="out"/>
<feColorMatrix type="matrix" values="0 0 0 0 0 0 0 0 0 0 0 0 0 0 0 0 0 0 0.25 0"/>
<feBlend mode="normal" in2="BackgroundImageFix" result="effect1_dropShadow_83_1252"/>
<feBlend mode="normal" in="SourceGraphic" in2="effect1_dropShadow_83_1252" result="shape"/>
</filter>
<linearGradient id="paint0_linear_83_1252" x1="21.8183" y1="0.108093" x2="21.8183" y2="32.2531" gradientUnits="userSpaceOnUse">
<stop stop-color="#7FED7D"/>
<stop offset="1" stop-color="#2ED058"/>
</linearGradient>
<linearGradient id="paint1_linear_83_1252" x1="16.5316" y1="-1.13135" x2="16.5316" y2="21.2628" gradientUnits="userSpaceOnUse">
<stop stop-color="#0C91FF"/>
<stop offset="1" stop-color="#0077F7"/>
</linearGradient>
<linearGradient id="paint2_linear_83_1252" x1="16.449" y1="15.9709" x2="16.449" y2="37.2907" gradientUnits="userSpaceOnUse">
<stop stop-color="#0C91FF"/>
<stop offset="1" stop-color="#017AFF"/>
</linearGradient>
<clipPath id="clip0_83_1252">
<rect x="0.5" y="0.108093" width="42.5676" height="42.5676" rx="9.93243" fill="white"/>
</clipPath>
<clipPath id="clip1_83_1252">
<rect x="26.7754" y="0.108154" width="16.3617" height="16.9402" fill="white"/>
</clipPath>
</defs>
</svg>
