<svg width="61" height="60" viewBox="0 0 61 60" fill="none" xmlns="http://www.w3.org/2000/svg">
<rect x="0.5" width="60" height="60" rx="14" fill="url(#paint0_linear_83_1594)"/>
<path fill-rule="evenodd" clip-rule="evenodd" d="M43.3337 46.9741C44.0701 48.2496 45.701 48.6866 46.9764 47.9502C48.2519 47.2138 48.6889 45.5829 47.9525 44.3075L45.273 39.6665H49.167C50.6398 39.6665 51.8337 38.4726 51.8337 36.9998C51.8337 35.5271 50.6397 34.3331 49.167 34.3331H42.1938L34.4998 21.0068C33.21 22.7749 31.8382 25.019 32.3356 27.9249L43.3337 46.9741ZM27.4211 19.4127L24.667 14.6425C23.9306 13.3671 24.3676 11.7362 25.6431 10.9998C26.9185 10.2634 28.5494 10.7004 29.2858 11.9759L30.5003 14.0794L31.7148 11.9759C32.4511 10.7004 34.0821 10.2634 35.3575 10.9998C36.633 11.7362 37.07 13.3671 36.3336 14.6425L24.9652 34.3331H33.6364C35.2223 34.8774 36.5003 36.6633 36.5003 38.3331C36.5003 38.7233 36.4078 39.1807 36.2566 39.6665H11.8337C10.3609 39.6665 9.16699 38.4726 9.16699 36.9998C9.16699 35.5271 10.3609 34.3331 11.8337 34.3331H18.8068L27.4211 19.4127ZM17.1669 40.6665C18.2943 40.6665 19.3025 41.2622 20.3931 42.2523L17.6669 46.9741C16.9305 48.2496 15.2996 48.6866 14.0242 47.9502C12.7487 47.2138 12.3117 45.5829 13.0481 44.3075L14.968 40.9821C15.4932 40.8214 15.7843 40.7425 16.0805 40.7038C16.3662 40.6665 16.6568 40.6665 17.1669 40.6665Z" fill="white"/>
<defs>
<linearGradient id="paint0_linear_83_1594" x1="30.5" y1="0" x2="30.5" y2="60" gradientUnits="userSpaceOnUse">
<stop stop-color="#15C7FA"/>
<stop offset="1" stop-color="#216FF0"/>
</linearGradient>
</defs>
</svg>
