<svg width="43" height="43" viewBox="0 0 43 43" fill="none" xmlns="http://www.w3.org/2000/svg">
<rect width="42.5676" height="42.5676" rx="9.93243" fill="url(#paint0_linear_51_4342)"/>
<path d="M36.8306 20.3692C36.8306 27.4864 29.8699 33.2559 21.2835 33.2559C19.983 33.2559 18.7198 33.1236 17.5124 32.8742C17.1476 32.7989 16.7673 32.789 16.4381 32.9631C15.3597 33.5333 13.5851 34.977 11.2743 35.0793C11.17 35.0839 11.1116 34.9641 11.1758 34.8817C12.5415 33.129 13.4315 31.5092 12.8448 31.1943C8.56698 28.8984 5.73633 24.9078 5.73633 20.3692C5.73633 13.2521 12.697 7.48257 21.2835 7.48257C29.8699 7.48257 36.8306 13.2521 36.8306 20.3692Z" fill="white"/>
<defs>
<linearGradient id="paint0_linear_51_4342" x1="21.2838" y1="0" x2="21.2838" y2="42.5676" gradientUnits="userSpaceOnUse">
<stop stop-color="#5CF777"/>
<stop offset="1" stop-color="#0EBC29"/>
</linearGradient>
</defs>
</svg>
