<svg width="43" height="43" viewBox="0 0 43 43" fill="none" xmlns="http://www.w3.org/2000/svg">
<rect width="42.5676" height="42.5676" rx="9.93243" fill="url(#paint0_linear_51_4349)"/>
<circle cx="21.2835" cy="21.2838" r="18.6233" fill="#2E2E2F"/>
<path fill-rule="evenodd" clip-rule="evenodd" d="M21.1857 10.226C21.206 10.1154 21.3646 10.1154 21.3849 10.226L21.6765 11.8154C21.7841 11.8198 21.8913 11.8259 21.998 11.8338L22.4724 10.2892C22.5054 10.1817 22.6629 10.2001 22.6702 10.3124L22.7749 11.9235C22.8815 11.9403 22.9874 11.9588 23.0928 11.9791L23.7431 10.5011C23.7884 10.3982 23.9426 10.4348 23.9368 10.5471L23.8535 12.1584C23.9574 12.1875 24.0606 12.2183 24.1631 12.2508L24.9804 10.8589C25.0374 10.7619 25.1864 10.8162 25.1675 10.9271L24.8974 12.5176C24.9971 12.5586 25.096 12.6013 25.194 12.6455L26.1678 11.3576C26.2357 11.2679 26.3773 11.3392 26.3457 11.4471L25.8923 12.9963C25.9864 13.0485 26.0795 13.1023 26.1716 13.1576L27.2892 11.9906C27.367 11.9094 27.4994 11.9967 27.4555 12.1002L26.8245 13.5872C26.9118 13.6498 26.9979 13.7139 27.0828 13.7794L28.3293 12.7493C28.416 12.6777 28.5374 12.7797 28.4817 12.8775L27.6819 14.2817C27.7612 14.3539 27.8392 14.4275 27.916 14.5023L29.2741 13.6234C29.3685 13.5623 29.4773 13.6777 29.4106 13.7684L28.453 15.0703C28.5234 15.1511 28.5925 15.2332 28.6601 15.3164L30.1109 14.601C30.2118 14.5513 30.3064 14.6786 30.2297 14.7609L29.1277 15.9424C29.1883 16.0309 29.2475 16.1205 29.3051 16.2111L30.8283 15.669C30.9343 15.6313 31.0135 15.7688 30.9277 15.8416L29.6967 16.8866C29.7467 16.9817 29.7951 17.0777 29.8418 17.1746L31.4166 16.813C31.5263 16.7878 31.589 16.9335 31.4954 16.9959L30.1518 17.8908C30.1903 17.991 30.2271 18.0921 30.2623 18.1939L31.868 18.0173C31.9798 18.005 32.0253 18.157 31.925 18.2081L30.4862 18.9413C30.5126 19.0453 30.5374 19.1499 30.5604 19.2551L32.1762 19.2658C32.2888 19.2665 32.3163 19.4228 32.2107 19.4619L30.6953 20.0239C30.7094 20.1299 30.7217 20.2364 30.7323 20.3435L32.3372 20.5415C32.4489 20.5553 32.4581 20.7137 32.3488 20.7403L30.7771 21.1231C30.778 21.1767 30.7785 21.2303 30.7785 21.2841C30.7785 21.3377 30.778 21.3911 30.7771 21.4445L32.3488 21.8273C32.4581 21.8539 32.4489 22.0124 32.3372 22.0261L30.7324 22.2241C30.7218 22.3312 30.7094 22.4378 30.6953 22.5438L32.2107 23.1057C32.3163 23.1449 32.2887 23.3011 32.1762 23.3019L30.5605 23.3125C30.5375 23.4178 30.5127 23.5224 30.4863 23.6264L31.925 24.3596C32.0253 24.4106 31.9798 24.5627 31.868 24.5504L30.2625 24.3738C30.2273 24.4756 30.1904 24.5767 30.1519 24.677L31.4954 25.5718C31.589 25.6342 31.5263 25.7799 31.4166 25.7547L29.8421 25.3931C29.7953 25.4901 29.7468 25.5861 29.6969 25.6812L30.9277 26.7261C31.0135 26.7989 30.9343 26.9363 30.8283 26.8986L29.3054 26.3566C29.2477 26.4473 29.1885 26.537 29.1279 26.6255L30.2297 27.8068C30.3064 27.889 30.2118 28.0164 30.1109 27.9666L28.6604 27.2514C28.5927 27.3346 28.5236 27.4167 28.4532 27.4976L29.4106 28.7993C29.4773 28.8899 29.3685 29.0054 29.2741 28.9443L27.9163 28.0656C27.8395 28.1404 27.7614 28.214 27.682 28.2863L28.4817 29.6902C28.5374 29.788 28.416 29.89 28.3293 29.8183L27.0831 28.7885C26.9981 28.854 26.912 28.9182 26.8247 28.9809L27.4555 30.4675C27.4994 30.571 27.367 30.6583 27.2892 30.577L26.1719 29.4104C26.0797 29.4657 25.9865 29.5195 25.8924 29.5718L26.3457 31.1205C26.3773 31.2285 26.2357 31.2997 26.1678 31.21L25.1943 29.9225C25.0962 29.9668 24.9973 30.0094 24.8975 30.0505L25.1675 31.6406C25.1864 31.7515 25.0374 31.8058 24.9804 31.7088L24.1633 30.3173C24.0608 30.3498 23.9575 30.3806 23.8535 30.4097L23.9368 32.0205C23.9426 32.1329 23.7884 32.1695 23.7431 32.0665L23.093 30.589C22.9875 30.6093 22.8815 30.6279 22.7749 30.6446L22.6702 32.2553C22.6629 32.3675 22.5054 32.386 22.4724 32.2785L21.9982 30.7343C21.8914 30.7422 21.7841 30.7484 21.6764 30.7527L21.3849 32.3417C21.3646 32.4523 21.206 32.4523 21.1857 32.3417L20.8942 30.7527C20.7865 30.7484 20.6792 30.7422 20.5724 30.7343L20.0982 32.2785C20.0651 32.386 19.9077 32.3675 19.9004 32.2553L19.7957 30.6447C19.6891 30.6279 19.583 30.6093 19.4776 30.5891L18.8275 32.0665C18.7822 32.1695 18.628 32.1329 18.6338 32.0205L18.7171 30.4098C18.6131 30.3807 18.5098 30.3499 18.4072 30.3174L17.5902 31.7088C17.5332 31.8058 17.3842 31.7514 17.4031 31.6406L17.6731 30.0506C17.5733 30.0095 17.4743 29.9669 17.3762 29.9226L16.4028 31.21C16.3349 31.2997 16.1933 31.2285 16.2249 31.1205L16.6782 29.5719C16.584 29.5196 16.4908 29.4658 16.3986 29.4105L15.2814 30.577C15.2036 30.6583 15.0712 30.571 15.1151 30.4675L15.7458 28.981C15.6585 28.9183 15.5724 28.8541 15.4873 28.7886L14.2413 29.8183C14.1546 29.89 14.0332 29.788 14.0889 29.6902L14.8885 28.2864C14.8091 28.2141 14.731 28.1405 14.6542 28.0657L13.2965 28.9443C13.202 29.0054 13.0933 28.8899 13.1599 28.7993L14.1173 27.4978C14.0468 27.4169 13.9777 27.3348 13.91 27.2515L12.4597 27.9666C12.3588 28.0164 12.2642 27.889 12.3409 27.8068L13.4425 26.6257C13.3819 26.5371 13.3227 26.4474 13.265 26.3567L11.7423 26.8986C11.6363 26.9363 11.5571 26.7989 11.6429 26.7261L12.8735 25.6813C12.8236 25.5862 12.7751 25.4902 12.7283 25.3932L11.154 25.7547C11.0443 25.7799 10.9815 25.6342 11.0752 25.5718L12.4185 24.6771C12.3799 24.5768 12.3431 24.4757 12.3079 24.3738L10.7026 24.5504C10.5908 24.5627 10.5453 24.4106 10.6456 24.3596L12.0841 23.6265C12.0576 23.5225 12.0328 23.4179 12.0098 23.3125L10.3944 23.3019C10.2818 23.3011 10.2543 23.1449 10.3598 23.1057L11.875 22.5439C11.8609 22.4378 11.8485 22.3312 11.838 22.2241L10.2334 22.0261C10.1217 22.0124 10.1125 21.8539 10.2218 21.8273L11.7932 21.4446C11.7923 21.3912 11.7919 21.3377 11.7919 21.2841C11.7919 21.2303 11.7923 21.1766 11.7932 21.1231L10.2218 20.7403C10.1125 20.7137 10.1217 20.5553 10.2334 20.5415L11.838 20.3436C11.8486 20.2364 11.861 20.1298 11.8751 20.0238L10.3598 19.4619C10.2543 19.4228 10.2818 19.2665 10.3944 19.2658L12.0099 19.2551C12.033 19.1498 12.0577 19.0452 12.0842 18.9412L10.6456 18.2081C10.5453 18.157 10.5908 18.005 10.7026 18.0173L12.308 18.1939C12.3432 18.092 12.3801 17.9909 12.4186 17.8906L11.0752 16.9959C10.9815 16.9335 11.0443 16.7878 11.154 16.813L12.7285 17.1745C12.7753 17.0776 12.8237 16.9816 12.8737 16.8865L11.6429 15.8416C11.5571 15.7688 11.6363 15.6313 11.7423 15.669L13.2652 16.211C13.3229 16.1204 13.3821 16.0307 13.4427 15.9422L12.3409 14.7609C12.2642 14.6786 12.3588 14.5513 12.4597 14.601L13.9103 15.3163C13.978 15.2331 14.047 15.151 14.1175 15.0701L13.1599 13.7684C13.0933 13.6777 13.202 13.5623 13.2965 13.6234L14.6544 14.5022C14.7313 14.4273 14.8093 14.3538 14.8886 14.2816L14.0889 12.8775C14.0332 12.7797 14.1546 12.6777 14.2413 12.7493L15.4876 13.7793C15.5726 13.7138 15.6587 13.6497 15.746 13.587L15.1151 12.1002C15.0712 11.9967 15.2036 11.9094 15.2814 11.9906L16.3989 13.1575C16.491 13.1022 16.5842 13.0484 16.6783 12.9962L16.2249 11.4471C16.1933 11.3392 16.3349 11.2679 16.4028 11.3576L17.3765 12.6454C17.4745 12.6012 17.5734 12.5585 17.6732 12.5175L17.4031 10.9271C17.3842 10.8162 17.5332 10.7619 17.5902 10.8589L18.4075 12.2507C18.5099 12.2182 18.6132 12.1874 18.7171 12.1583L18.6338 10.5471C18.628 10.4348 18.7822 10.3982 18.8275 10.5011L19.4778 11.979C19.5832 11.9588 19.6891 11.9402 19.7957 11.9235L19.9004 10.3124C19.9077 10.2001 20.0651 10.1817 20.0982 10.2892L20.5726 11.8338C20.6793 11.8259 20.7865 11.8197 20.8941 11.8154L21.1857 10.226ZM21.2846 29.2652C25.6926 29.2652 29.266 25.6918 29.266 21.2838C29.266 16.8758 25.6926 13.3024 21.2846 13.3024C16.8765 13.3024 13.3031 16.8758 13.3031 21.2838C13.3031 25.6918 16.8765 29.2652 21.2846 29.2652Z" fill="url(#paint1_linear_51_4349)"/>
<g filter="url(#filter0_d_51_4349)">
<path fill-rule="evenodd" clip-rule="evenodd" d="M21.4037 4.22094C21.383 4.08195 21.1826 4.08195 21.1619 4.22094L20.7616 6.90987C20.5504 6.91739 20.3404 6.92946 20.1316 6.94599L19.422 4.32228C19.3853 4.18663 19.1862 4.2099 19.1818 4.35035L19.0965 7.0657C18.8875 7.09757 18.68 7.13393 18.4741 7.17469L17.4655 4.65299C17.4133 4.52252 17.2183 4.56874 17.2302 4.70876L17.4605 7.41402C17.2567 7.47006 17.0547 7.53047 16.8546 7.59515L15.5606 5.2086C15.4936 5.08507 15.3052 5.15362 15.3333 5.29131L15.8761 7.95137C15.6804 8.0308 15.4869 8.11442 15.2956 8.20211L13.7331 5.98161C13.6522 5.86668 13.4731 5.95664 13.517 6.09014L14.3652 8.67028C14.1804 8.77184 13.9981 8.87735 13.8184 8.98669L12.0076 6.96155C11.914 6.85679 11.7465 6.96693 11.8056 7.09443L12.9483 9.56007C12.7768 9.68221 12.6081 9.80802 12.4423 9.93738L10.4076 8.13517C10.3024 8.04199 10.1489 8.17083 10.2224 8.29061L11.6442 10.6078C11.4881 10.7488 11.3351 10.8932 11.1854 11.0408L8.95471 9.4866C8.83941 9.40627 8.70186 9.55207 8.78876 9.6625L10.4699 11.7989C10.3312 11.9569 10.1959 12.118 10.0641 12.282L7.6685 10.9976C7.54465 10.9312 7.42496 11.0919 7.52409 11.1915L9.44108 13.1175C9.32152 13.2906 9.20565 13.4664 9.09359 13.6448L6.5664 12.6476C6.43568 12.5961 6.33546 12.7697 6.44549 12.8571L8.57187 14.5465C8.47317 14.7323 8.37842 14.9206 8.28774 15.1112L5.66331 14.4145C5.52749 14.3785 5.4481 14.5625 5.56753 14.6366L7.87481 16.0672C7.79848 16.2632 7.72633 16.4613 7.65846 16.6614L4.97145 16.2743C4.83236 16.2542 4.77488 16.4462 4.9021 16.5059L7.36019 17.6592C7.3074 17.8625 7.25894 18.0677 7.21492 18.2744L4.50018 18.2018C4.3597 18.198 4.32489 18.3954 4.45818 18.4399L7.03522 19.3006C7.00658 19.5082 6.98237 19.7173 6.96269 19.9278L4.25585 20.171C4.11589 20.1835 4.10424 20.3836 4.24179 20.4124L6.903 20.9684C6.90074 21.0732 6.89961 21.1784 6.89961 21.2838C6.89961 21.3892 6.90074 21.4943 6.903 21.5992L4.24179 22.1552C4.10424 22.1839 4.11589 22.384 4.25585 22.3966L6.96269 22.6398C6.98237 22.8502 7.00658 23.0593 7.03522 23.267L4.45818 24.1276C4.32489 24.1721 4.3597 24.3695 4.50018 24.3658L7.21492 24.2931C7.25894 24.4999 7.3074 24.705 7.36019 24.9084L4.9021 26.0616C4.77488 26.1213 4.83236 26.3133 4.97145 26.2933L7.65846 25.9061C7.72633 26.1062 7.79848 26.3044 7.87481 26.5004L5.56753 27.931C5.4481 28.0051 5.52749 28.1891 5.66331 28.153L8.28774 27.4564C8.37842 27.647 8.47317 27.8352 8.57187 28.0211L6.44549 29.7105C6.33546 29.7979 6.43568 29.9715 6.5664 29.9199L9.09359 28.9228C9.20565 29.1012 9.32152 29.277 9.44108 29.45L7.52409 31.376C7.42496 31.4756 7.54465 31.6364 7.6685 31.57L10.0641 30.2855C10.1959 30.4496 10.3312 30.6106 10.4699 30.7687L8.78876 32.9051C8.70186 33.0155 8.83941 33.1613 8.95471 33.081L11.1854 31.5268C11.3351 31.6744 11.4881 31.8188 11.6442 31.9598L10.2224 34.2769C10.1489 34.3967 10.3024 34.5256 10.4076 34.4324L12.4423 32.6302C12.6081 32.7595 12.7768 32.8854 12.9483 33.0075L11.8056 35.4731C11.7465 35.6006 11.914 35.7108 12.0076 35.606L13.8184 33.5809C13.9981 33.6902 14.1804 33.7957 14.3652 33.8973L13.517 36.4774C13.4731 36.6109 13.6522 36.7009 13.7331 36.586L15.2956 34.3655C15.4869 34.4531 15.6804 34.5368 15.8761 34.6162L15.3333 37.2762C15.3052 37.4139 15.4936 37.4825 15.5606 37.359L16.8546 34.9724C17.0547 35.0371 17.2567 35.0975 17.4605 35.1535L17.2302 37.8588C17.2183 37.9988 17.4133 38.045 17.4655 37.9146L18.4741 35.3929C18.68 35.4336 18.8875 35.47 19.0965 35.5019L19.1818 38.2172C19.1862 38.3577 19.3853 38.3809 19.422 38.2453L20.1316 35.6216C20.3404 35.6381 20.5504 35.6502 20.7616 35.6577L21.1619 38.3466C21.1826 38.4856 21.383 38.4856 21.4037 38.3466L21.804 35.6577C22.0152 35.6502 22.2252 35.6381 22.434 35.6216L23.1436 38.2453C23.1803 38.3809 23.3793 38.3577 23.3838 38.2172L23.4691 35.5019C23.6781 35.47 23.8856 35.4336 24.0915 35.3929L25.1001 37.9146C25.1523 38.045 25.3473 37.9988 25.3354 37.8588L25.1051 35.1535C25.3089 35.0975 25.5109 35.0371 25.711 34.9724L27.005 37.359C27.072 37.4825 27.2603 37.4139 27.2322 37.2762L26.6895 34.6162C26.8852 34.5368 27.0787 34.4531 27.27 34.3655L28.8325 36.586C28.9134 36.7009 29.0925 36.6109 29.0486 36.4774L28.2004 33.8973C28.3852 33.7957 28.5675 33.6902 28.7472 33.5809L30.558 35.606C30.6516 35.7108 30.8191 35.6006 30.76 35.4731L29.6173 33.0075C29.7888 32.8854 29.9575 32.7595 30.1233 32.6302L32.1579 34.4324C32.2631 34.5256 32.4167 34.3967 32.3432 34.2769L30.9214 31.9598C31.0775 31.8188 31.2304 31.6744 31.3802 31.5268L33.6109 33.081C33.7262 33.1613 33.8637 33.0155 33.7768 32.9051L32.0957 30.7687C32.2344 30.6106 32.3697 30.4496 32.5015 30.2855L34.8971 31.57C35.0209 31.6364 35.1406 31.4756 35.0415 31.376L33.1245 29.45C33.2441 29.277 33.3599 29.1012 33.472 28.9228L35.9992 29.9199C36.1299 29.9715 36.2301 29.7979 36.1201 29.7105L33.9937 28.0211C34.0924 27.8352 34.1872 27.647 34.2778 27.4564L36.9023 28.153C37.0381 28.1891 37.1175 28.0051 36.9981 27.931L34.6908 26.5004C34.7671 26.3044 34.8393 26.1062 34.9071 25.9061L37.5941 26.2933C37.7332 26.3133 37.7907 26.1213 37.6635 26.0616L35.2054 24.9084C35.2582 24.705 35.3066 24.4999 35.3507 24.2931L38.0654 24.3658C38.2059 24.3695 38.2407 24.1721 38.1074 24.1276L35.5304 23.267C35.559 23.0593 35.5832 22.8502 35.6029 22.6398L38.3097 22.3966C38.4497 22.384 38.4613 22.1839 38.3238 22.1552L35.6626 21.5992C35.6648 21.4943 35.666 21.3892 35.666 21.2838C35.666 21.1784 35.6648 21.0732 35.6626 20.9684L38.3238 20.4124C38.4613 20.3836 38.4497 20.1835 38.3097 20.171L35.6029 19.9278C35.5832 19.7173 35.559 19.5082 35.5304 19.3006L38.1074 18.4399C38.2407 18.3954 38.2059 18.198 38.0654 18.2018L35.3507 18.2744C35.3066 18.0677 35.2582 17.8625 35.2054 17.6592L37.6635 16.5059C37.7907 16.4462 37.7332 16.2542 37.5941 16.2743L34.9071 16.6614C34.8393 16.4613 34.7671 16.2632 34.6908 16.0672L36.9981 14.6366C37.1175 14.5625 37.0381 14.3785 36.9023 14.4145L34.2778 15.1112C34.1872 14.9206 34.0924 14.7323 33.9937 14.5465L36.1201 12.8571C36.2301 12.7697 36.1299 12.5961 35.9992 12.6476L33.472 13.6448C33.3599 13.4664 33.2441 13.2906 33.1245 13.1175L35.0415 11.1915C35.1406 11.0919 35.0209 10.9312 34.8971 10.9976L32.5015 12.282C32.3697 12.118 32.2344 11.9569 32.0957 11.7989L33.7768 9.6625C33.8637 9.55207 33.7262 9.40627 33.6109 9.4866L31.3802 11.0408C31.2304 10.8932 31.0775 10.7488 30.9214 10.6078L32.3432 8.29061C32.4167 8.17083 32.2631 8.04199 32.1579 8.13517L30.1233 9.93738C29.9575 9.80802 29.7888 9.68221 29.6173 9.56007L30.76 7.09443C30.8191 6.96693 30.6516 6.85679 30.558 6.96155L28.7472 8.98669C28.5675 8.87735 28.3852 8.77184 28.2004 8.67027L29.0486 6.09014C29.0925 5.95664 28.9134 5.86668 28.8325 5.98161L27.27 8.2021C27.0787 8.11442 26.8852 8.0308 26.6895 7.95137L27.2322 5.29131C27.2603 5.15363 27.072 5.08507 27.005 5.2086L25.711 7.59515C25.5109 7.53047 25.3089 7.47006 25.1051 7.41402L25.3354 4.70876C25.3473 4.56874 25.1523 4.52252 25.1001 4.65299L24.0915 7.17469C23.8856 7.13393 23.6781 7.09757 23.4691 7.0657L23.3838 4.35035C23.3793 4.2099 23.1803 4.18663 23.1436 4.32228L22.434 6.94599C22.2252 6.92946 22.0152 6.91739 21.804 6.90987L21.4037 4.22094ZM12.3381 12.1708C13.3394 11.195 14.9308 11.5786 15.6397 12.7838L19.8013 19.8591C20.2533 20.6276 20.2533 21.5808 19.8013 22.3493L15.5058 29.6522C14.79 30.8691 13.1771 31.2451 12.1828 30.2428C9.89197 27.9337 8.47958 24.7716 8.47958 21.2838C8.47958 17.7178 9.95595 14.4924 12.3381 12.1708ZM23.261 21.8679C22.3907 21.8679 21.5854 22.3285 21.1442 23.0787L16.8267 30.4189C16.1097 31.638 16.5681 33.233 17.9309 33.6112C19.0488 33.9214 20.2279 34.0873 21.4463 34.0873C27.5167 34.0873 32.6129 29.9683 34.0246 24.4064C34.369 23.0494 33.2298 21.8679 31.8297 21.8679H23.261ZM31.7347 20.3404C33.1622 20.3404 34.3094 19.1135 33.9107 17.7428C32.355 12.3939 27.3635 8.48024 21.4463 8.48024C20.3047 8.48024 19.1975 8.62591 18.1429 8.89945C16.7606 9.25797 16.2847 10.8679 17.0087 12.0987L21.1442 19.1297C21.5854 19.8798 22.3907 20.3404 23.261 20.3404H31.7347ZM21.2907 21.9699C21.681 21.9699 21.9974 21.6535 21.9974 21.2632C21.9974 20.8729 21.681 20.5565 21.2907 20.5565C20.9004 20.5565 20.584 20.8729 20.584 21.2632C20.584 21.6535 20.9004 21.9699 21.2907 21.9699Z" fill="url(#paint2_linear_51_4349)"/>
</g>
<defs>
<filter id="filter0_d_51_4349" x="3.5333" y="4.1167" width="35.4988" height="35.5566" filterUnits="userSpaceOnUse" color-interpolation-filters="sRGB">
<feFlood flood-opacity="0" result="BackgroundImageFix"/>
<feColorMatrix in="SourceAlpha" type="matrix" values="0 0 0 0 0 0 0 0 0 0 0 0 0 0 0 0 0 0 127 0" result="hardAlpha"/>
<feOffset dy="0.611227"/>
<feGaussianBlur stdDeviation="0.305613"/>
<feColorMatrix type="matrix" values="0 0 0 0 0 0 0 0 0 0 0 0 0 0 0 0 0 0 0.45 0"/>
<feBlend mode="normal" in2="BackgroundImageFix" result="effect1_dropShadow_51_4349"/>
<feBlend mode="normal" in="SourceGraphic" in2="effect1_dropShadow_51_4349" result="shape"/>
</filter>
<linearGradient id="paint0_linear_51_4349" x1="21.2838" y1="0" x2="21.2838" y2="42.5676" gradientUnits="userSpaceOnUse">
<stop stop-color="#EAEAEA"/>
<stop offset="1" stop-color="#8F8F93"/>
</linearGradient>
<linearGradient id="paint1_linear_51_4349" x1="21.2853" y1="10.6419" x2="21.2853" y2="31.9256" gradientUnits="userSpaceOnUse">
<stop stop-color="#B4B4B8"/>
<stop offset="1" stop-color="#B4B4B8"/>
</linearGradient>
<linearGradient id="paint2_linear_51_4349" x1="21.2967" y1="4.36853" x2="21.4879" y2="38.4718" gradientUnits="userSpaceOnUse">
<stop offset="0.193294" stop-color="#D4D4D8"/>
<stop offset="0.830878" stop-color="#9D9DA1"/>
</linearGradient>
</defs>
</svg>
