<svg width="32" height="32" viewBox="0 0 32 32" fill="none" xmlns="http://www.w3.org/2000/svg">
<g clip-path="url(#clip0_154_5457)">
<path d="M15.9998 32.0001C24.3454 32.0001 31.1109 25.2346 31.1109 16.8889C31.1109 8.54331 24.3454 1.77783 15.9998 1.77783C7.65415 1.77783 0.888672 8.54331 0.888672 16.8889C0.888672 25.2346 7.65415 32.0001 15.9998 32.0001Z" fill="#F4900C"/>
<path d="M15.9998 30.2222C24.3454 30.2222 31.1109 23.4567 31.1109 15.1111C31.1109 6.76547 24.3454 0 15.9998 0C7.65415 0 0.888672 6.76547 0.888672 15.1111C0.888672 23.4567 7.65415 30.2222 15.9998 30.2222Z" fill="#FFCC4D"/>
<path d="M16.0001 28.4444C22.873 28.4444 28.4446 22.8729 28.4446 16C28.4446 9.12711 22.873 3.55554 16.0001 3.55554C9.12723 3.55554 3.55566 9.12711 3.55566 16C3.55566 22.8729 9.12723 28.4444 16.0001 28.4444Z" fill="#FFE8B6"/>
<path d="M16.0001 27.5555C22.873 27.5555 28.4446 21.9839 28.4446 15.1111C28.4446 8.23819 22.873 2.66663 16.0001 2.66663C9.12723 2.66663 3.55566 8.23819 3.55566 15.1111C3.55566 21.9839 9.12723 27.5555 16.0001 27.5555Z" fill="#FFAC33"/>
<g filter="url(#filter0_dii_154_5457)">
<path d="M13.3239 12.7102C13.2784 12.2519 13.0833 11.8958 12.7386 11.642C12.3939 11.3883 11.9261 11.2614 11.3352 11.2614C10.9337 11.2614 10.5947 11.3182 10.3182 11.4318C10.0417 11.5417 9.82955 11.6951 9.68182 11.892C9.53788 12.089 9.46591 12.3125 9.46591 12.5625C9.45833 12.7708 9.50189 12.9527 9.59659 13.108C9.69508 13.2633 9.82955 13.3977 10 13.5114C10.1705 13.6212 10.3674 13.7178 10.5909 13.8011C10.8144 13.8807 11.053 13.9489 11.3068 14.0057L12.3523 14.2557C12.8598 14.3693 13.3258 14.5208 13.75 14.7102C14.1742 14.8996 14.5417 15.1326 14.8523 15.4091C15.1629 15.6856 15.4034 16.0114 15.5739 16.3864C15.7481 16.7614 15.8371 17.1913 15.8409 17.6761C15.8371 18.3883 15.6553 19.0057 15.2955 19.5284C14.9394 20.0473 14.4242 20.4508 13.75 20.7386C13.0795 21.0227 12.2708 21.1648 11.3239 21.1648C10.3845 21.1648 9.56629 21.0208 8.86932 20.733C8.17614 20.4451 7.63447 20.0189 7.24432 19.4545C6.85795 18.8864 6.6553 18.1837 6.63636 17.3466H9.01705C9.04356 17.7367 9.1553 18.0625 9.35227 18.3239C9.55303 18.5814 9.82008 18.7765 10.1534 18.9091C10.4905 19.0379 10.8712 19.1023 11.2955 19.1023C11.7121 19.1023 12.0739 19.0417 12.3807 18.9205C12.6913 18.7992 12.9318 18.6307 13.1023 18.4148C13.2727 18.1989 13.358 17.9508 13.358 17.6705C13.358 17.4091 13.2803 17.1894 13.125 17.0114C12.9735 16.8333 12.75 16.6818 12.4545 16.5568C12.1629 16.4318 11.8049 16.3182 11.3807 16.2159L10.1136 15.8977C9.13258 15.6591 8.35795 15.286 7.78977 14.7784C7.22159 14.2708 6.93939 13.5871 6.94318 12.7273C6.93939 12.0227 7.12689 11.4072 7.50568 10.8807C7.88826 10.3542 8.41288 9.94318 9.07955 9.64773C9.74621 9.35227 10.5038 9.20455 11.3523 9.20455C12.2159 9.20455 12.9697 9.35227 13.6136 9.64773C14.2614 9.94318 14.7652 10.3542 15.125 10.8807C15.4848 11.4072 15.6705 12.017 15.6818 12.7102H13.3239ZM17.4957 21V9.36364H22.0866C22.9692 9.36364 23.7211 9.5322 24.3423 9.86932C24.9635 10.2027 25.437 10.6667 25.7628 11.2614C26.0923 11.8523 26.2571 12.5341 26.2571 13.3068C26.2571 14.0795 26.0904 14.7614 25.7571 15.3523C25.4238 15.9432 24.9408 16.4034 24.3082 16.733C23.6795 17.0625 22.9181 17.2273 22.0241 17.2273H19.098V15.2557H21.6264C22.0999 15.2557 22.4901 15.1742 22.7969 15.0114C23.1075 14.8447 23.3385 14.6155 23.4901 14.3239C23.6454 14.0284 23.723 13.6894 23.723 13.3068C23.723 12.9205 23.6454 12.5833 23.4901 12.2955C23.3385 12.0038 23.1075 11.7784 22.7969 11.6193C22.4863 11.4564 22.0923 11.375 21.6151 11.375H19.956V21H17.4957Z" fill="white"/>
</g>
</g>
<defs>
<filter id="filter0_dii_154_5457" x="6.63672" y="9.20459" width="19.6201" height="12.4602" filterUnits="userSpaceOnUse" color-interpolation-filters="sRGB">
<feFlood flood-opacity="0" result="BackgroundImageFix"/>
<feColorMatrix in="SourceAlpha" type="matrix" values="0 0 0 0 0 0 0 0 0 0 0 0 0 0 0 0 0 0 127 0" result="hardAlpha"/>
<feOffset dy="0.5"/>
<feComposite in2="hardAlpha" operator="out"/>
<feColorMatrix type="matrix" values="0 0 0 0 0.956863 0 0 0 0 0.564706 0 0 0 0 0.0470588 0 0 0 1 0"/>
<feBlend mode="normal" in2="BackgroundImageFix" result="effect1_dropShadow_154_5457"/>
<feBlend mode="normal" in="SourceGraphic" in2="effect1_dropShadow_154_5457" result="shape"/>
<feColorMatrix in="SourceAlpha" type="matrix" values="0 0 0 0 0 0 0 0 0 0 0 0 0 0 0 0 0 0 127 0" result="hardAlpha"/>
<feOffset dy="0.3"/>
<feComposite in2="hardAlpha" operator="arithmetic" k2="-1" k3="1"/>
<feColorMatrix type="matrix" values="0 0 0 0 1 0 0 0 0 0.909804 0 0 0 0 0.713726 0 0 0 1 0"/>
<feBlend mode="normal" in2="shape" result="effect2_innerShadow_154_5457"/>
<feColorMatrix in="SourceAlpha" type="matrix" values="0 0 0 0 0 0 0 0 0 0 0 0 0 0 0 0 0 0 127 0" result="hardAlpha"/>
<feOffset dy="-0.3"/>
<feComposite in2="hardAlpha" operator="arithmetic" k2="-1" k3="1"/>
<feColorMatrix type="matrix" values="0 0 0 0 1 0 0 0 0 0.8 0 0 0 0 0.301961 0 0 0 1 0"/>
<feBlend mode="normal" in2="effect2_innerShadow_154_5457" result="effect3_innerShadow_154_5457"/>
</filter>
<clipPath id="clip0_154_5457">
<rect width="32" height="32" fill="white"/>
</clipPath>
</defs>
</svg>
