<svg width="43" height="43" viewBox="0 0 43 43" fill="none" xmlns="http://www.w3.org/2000/svg">
<rect width="42.5676" height="42.5676" rx="9.93243" fill="white"/>
<path fill-rule="evenodd" clip-rule="evenodd" d="M10.8783 10.6419C10.8783 12.2092 9.60776 13.4797 8.04046 13.4797C6.47317 13.4797 5.20262 12.2092 5.20262 10.6419C5.20262 9.07461 6.47317 7.80406 8.04046 7.80406C9.60776 7.80406 10.8783 9.07461 10.8783 10.6419ZM11.5878 10.6419C11.5878 12.601 9.99958 14.1892 8.04046 14.1892C6.08134 14.1892 4.49316 12.601 4.49316 10.6419C4.49316 8.68278 6.08134 7.0946 8.04046 7.0946C9.99958 7.0946 11.5878 8.68278 11.5878 10.6419ZM8.04031 12.7703C9.21578 12.7703 10.1687 11.8174 10.1687 10.6419C10.1687 9.46642 9.21578 8.51351 8.04031 8.51351C6.86484 8.51351 5.91193 9.46642 5.91193 10.6419C5.91193 11.8174 6.86484 12.7703 8.04031 12.7703Z" fill="url(#paint0_linear_51_4328)"/>
<path fill-rule="evenodd" clip-rule="evenodd" d="M10.8783 21.2838C10.8783 22.8511 9.60776 24.1216 8.04046 24.1216C6.47317 24.1216 5.20262 22.8511 5.20262 21.2838C5.20262 19.7165 6.47317 18.4459 8.04046 18.4459C9.60776 18.4459 10.8783 19.7165 10.8783 21.2838ZM11.5878 21.2838C11.5878 23.2429 9.99958 24.8311 8.04046 24.8311C6.08134 24.8311 4.49316 23.2429 4.49316 21.2838C4.49316 19.3247 6.08134 17.7365 8.04046 17.7365C9.99958 17.7365 11.5878 19.3247 11.5878 21.2838ZM8.04031 23.4122C9.21578 23.4122 10.1687 22.4593 10.1687 21.2838C10.1687 20.1083 9.21578 19.1554 8.04031 19.1554C6.86484 19.1554 5.91193 20.1083 5.91193 21.2838C5.91193 22.4593 6.86484 23.4122 8.04031 23.4122Z" fill="url(#paint1_linear_51_4328)"/>
<path fill-rule="evenodd" clip-rule="evenodd" d="M10.8783 31.9257C10.8783 33.493 9.60776 34.7635 8.04046 34.7635C6.47317 34.7635 5.20262 33.493 5.20262 31.9257C5.20262 30.3584 6.47317 29.0878 8.04046 29.0878C9.60776 29.0878 10.8783 30.3584 10.8783 31.9257ZM11.5878 31.9257C11.5878 33.8848 9.99958 35.473 8.04046 35.473C6.08134 35.473 4.49316 33.8848 4.49316 31.9257C4.49316 29.9666 6.08134 28.3784 8.04046 28.3784C9.99958 28.3784 11.5878 29.9666 11.5878 31.9257ZM8.04031 34.0541C9.21578 34.0541 10.1687 33.1012 10.1687 31.9257C10.1687 30.7502 9.21578 29.7973 8.04031 29.7973C6.86484 29.7973 5.91193 30.7502 5.91193 31.9257C5.91193 33.1012 6.86484 34.0541 8.04031 34.0541Z" fill="url(#paint2_linear_51_4328)"/>
<path fill-rule="evenodd" clip-rule="evenodd" d="M15.9622 10.1689C15.7662 10.1689 15.6074 10.3277 15.6074 10.5236C15.6074 10.7195 15.7662 10.8783 15.9622 10.8783H37.2459C37.4418 10.8783 37.6007 10.7195 37.6007 10.5236C37.6007 10.3277 37.4418 10.1689 37.2459 10.1689H15.9622ZM15.6074 21.1655C15.6074 20.9696 15.7662 20.8107 15.9622 20.8107H37.2459C37.4418 20.8107 37.6007 20.9696 37.6007 21.1655C37.6007 21.3614 37.4418 21.5202 37.2459 21.5202H15.9622C15.7662 21.5202 15.6074 21.3614 15.6074 21.1655ZM15.6074 31.8074C15.6074 31.6114 15.7662 31.4526 15.9622 31.4526H37.2459C37.4418 31.4526 37.6007 31.6114 37.6007 31.8074C37.6007 32.0033 37.4418 32.1621 37.2459 32.1621H15.9622C15.7662 32.1621 15.6074 32.0033 15.6074 31.8074Z" fill="#C6C5C9"/>
<defs>
<linearGradient id="paint0_linear_51_4328" x1="8.04046" y1="7.0946" x2="8.04046" y2="14.1892" gradientUnits="userSpaceOnUse">
<stop stop-color="#077CFF"/>
<stop offset="1" stop-color="#047BFE"/>
</linearGradient>
<linearGradient id="paint1_linear_51_4328" x1="8.04046" y1="17.7365" x2="8.04046" y2="24.8311" gradientUnits="userSpaceOnUse">
<stop stop-color="#FD4235"/>
<stop offset="1" stop-color="#FF3F33"/>
</linearGradient>
<linearGradient id="paint2_linear_51_4328" x1="8.04046" y1="28.3784" x2="8.04046" y2="35.473" gradientUnits="userSpaceOnUse">
<stop stop-color="#FF9700"/>
<stop offset="1" stop-color="#FE9404"/>
</linearGradient>
</defs>
</svg>
