<svg width="40" height="40" viewBox="0 0 40 40" fill="none" xmlns="http://www.w3.org/2000/svg">
<g clip-path="url(#clip0_1300_20968)">
<path d="M20 0C14.6969 0 9.60625 2.10844 5.85938 5.85781C2.10866 9.6087 0.00107328 14.6956 0 20C0 25.3022 2.10938 30.3928 5.85938 34.1422C9.60625 37.8916 14.6969 40 20 40C25.3031 40 30.3937 37.8916 34.1406 34.1422C37.8906 30.3928 40 25.3022 40 20C40 14.6978 37.8906 9.60719 34.1406 5.85781C30.3937 2.10844 25.3031 0 20 0Z" fill="url(#paint0_linear_1300_20968)"/>
<path d="M9.05291 19.7886C14.8842 17.2486 18.7717 15.574 20.7154 14.7648C26.2717 12.4545 27.4248 12.0533 28.1779 12.0397C28.3435 12.037 28.7123 12.078 28.9529 12.2725C29.1529 12.4365 29.2092 12.6584 29.2373 12.8142C29.2623 12.9698 29.2967 13.3245 29.2685 13.6014C28.9685 16.7639 27.6654 24.4383 27.0029 27.9805C26.7248 29.4792 26.1717 29.9817 25.6373 30.0308C24.4748 30.1376 23.5935 29.2633 22.4685 28.5261C20.7092 27.372 19.7154 26.6539 18.006 25.528C16.031 24.2267 17.3123 23.5114 18.4373 22.3426C18.731 22.0367 23.8498 17.382 23.9467 16.9598C23.9592 16.907 23.9717 16.7101 23.8529 16.6064C23.7373 16.5023 23.5654 16.538 23.4404 16.5661C23.2623 16.6061 20.4529 18.4648 15.0029 22.142C14.206 22.6901 13.4842 22.9573 12.8342 22.9433C12.1217 22.9279 10.7467 22.5395 9.72479 22.2076C8.47479 21.8005 7.47791 21.5851 7.56541 20.8936C7.60916 20.5336 8.10603 20.1651 9.05291 19.7886Z" fill="white"/>
</g>
<defs>
<linearGradient id="paint0_linear_1300_20968" x1="2000" y1="0" x2="2000" y2="4000" gradientUnits="userSpaceOnUse">
<stop stop-color="#2AABEE"/>
<stop offset="1" stop-color="#229ED9"/>
</linearGradient>
<clipPath id="clip0_1300_20968">
<rect width="40" height="40" fill="white"/>
</clipPath>
</defs>
</svg>
