<svg width="83" height="54" viewBox="0 0 83 54" fill="none" xmlns="http://www.w3.org/2000/svg">
<rect x="0.8" y="9.8" width="76.4" height="36.4" rx="7.2" fill="#002544" stroke="#FF0048" stroke-width="1.6"/>
<path d="M19.1115 50.1939C19.1115 51.8742 21.3703 52.4186 22.1358 50.9229L36.9166 22.042C37.4615 20.9774 36.6883 19.7131 35.4923 19.7131H24.0893V4.03221C24.0893 2.35198 21.8305 1.80753 21.065 3.30327L6.28419 32.1841L6.99635 32.5486L6.28419 32.1841C5.73932 33.2488 6.51252 34.5131 7.7085 34.5131H19.1115L19.1115 50.1939Z" fill="#FF0048" stroke="#002544" stroke-width="1.6" stroke-linejoin="round"/>
<rect x="44" y="15" width="5" height="26" fill="#011A2F"/>
<rect x="53" y="15" width="5" height="26" fill="#011A2F"/>
<rect x="62" y="15" width="5" height="26" fill="#011A2F"/>
<rect x="80" y="20" width="3" height="15" rx="1.5" fill="#FF0048"/>
</svg>
